<svg width="200" height="200" viewBox="0 0 200 200" fill="none" xmlns="http://www.w3.org/2000/svg">
<path d="M0 105V95H0.0497513C2.81117 95 5.04975 97.2386 5.04975 100C5.04975 102.761 2.81118 105 0.0497513 105H0Z" fill="#FDA3AB"/>
<path d="M105 200H95V199.95C95 197.189 97.2386 194.95 100 194.95C102.761 194.95 105 197.189 105 199.95V200Z" fill="#FDA3AB"/>
<path d="M200 95V105H199.95C197.189 105 194.95 102.761 194.95 100C194.95 97.2386 197.189 95 199.95 95H200Z" fill="#FDA3AB"/>
<path d="M105 0H95V0.0497513C95 2.81118 97.2386 5.04975 100 5.04975C102.761 5.04975 105 2.81118 105 0.0497513V0Z" fill="#FDA3AB"/>
<path d="M105 19.9502C105 17.1888 102.761 14.9502 100 14.9502C97.2386 14.9502 95 17.1888 95 19.9502V20.0498C95 22.8112 97.2386 25.0498 100 25.0498C102.761 25.0498 105 22.8112 105 20.0498V19.9502Z" fill="#FDA3AB"/>
<path d="M105 39.9502C105 37.1888 102.761 34.9502 100 34.9502C97.2386 34.9502 95 37.1888 95 39.9502V40.0498C95 42.8112 97.2386 45.0498 100 45.0498C102.761 45.0498 105 42.8112 105 40.0498V39.9502Z" fill="#FDA3AB"/>
<path d="M105 59.9502C105 57.1888 102.761 54.9502 100 54.9502C97.2386 54.9502 95 57.1888 95 59.9502V60.0497C95 62.8112 97.2386 65.0498 100 65.0498C102.761 65.0498 105 62.8112 105 60.0497V59.9502Z" fill="#FDA3AB"/>
<path d="M105 79.9502C105 77.1888 102.761 74.9502 100 74.9502C97.2386 74.9502 95 77.1888 95 79.9502V80.0498C95 82.8112 97.2386 85.0498 100 85.0498C102.761 85.0498 105 82.8112 105 80.0498V79.9502Z" fill="#FDA3AB"/>
<path d="M100 105.05C98.6066 105.05 97.3464 104.48 96.4397 103.56C95.5202 102.654 94.9502 101.393 94.9502 100C94.9502 98.6065 95.5203 97.3461 96.4399 96.4394C97.3466 95.5201 98.6068 94.9502 100 94.9502C101.393 94.9502 102.654 95.5202 103.56 96.4397C104.48 97.3465 105.05 98.6067 105.05 100C105.05 101.393 104.48 102.654 103.56 103.56C102.654 104.48 101.393 105.05 100 105.05Z" fill="#FDA3AB"/>
<path d="M19.9502 95C17.1888 95 14.9502 97.2386 14.9502 100C14.9502 102.761 17.1888 105 19.9502 105H20.0498C22.8112 105 25.0498 102.761 25.0498 100C25.0498 97.2386 22.8112 95 20.0498 95H19.9502Z" fill="#FDA3AB"/>
<path d="M39.9502 95C37.1888 95 34.9502 97.2386 34.9502 100C34.9502 102.761 37.1888 105 39.9502 105H40.0498C42.8112 105 45.0498 102.761 45.0498 100C45.0498 97.2386 42.8112 95 40.0498 95H39.9502Z" fill="#FDA3AB"/>
<path d="M59.9502 95C57.1888 95 54.9502 97.2386 54.9502 100C54.9502 102.761 57.1888 105 59.9502 105H60.0497C62.8112 105 65.0498 102.761 65.0498 100C65.0498 97.2386 62.8112 95 60.0497 95H59.9502Z" fill="#FDA3AB"/>
<path d="M79.9502 95C77.1888 95 74.9502 97.2386 74.9502 100C74.9502 102.761 77.1888 105 79.9502 105H80.0498C82.8112 105 85.0498 102.761 85.0498 100C85.0498 97.2386 82.8112 95 80.0498 95H79.9502Z" fill="#FDA3AB"/>
<path d="M119.95 95C117.189 95 114.95 97.2386 114.95 100C114.95 102.761 117.189 105 119.95 105H120.05C122.811 105 125.05 102.761 125.05 100C125.05 97.2386 122.811 95 120.05 95H119.95Z" fill="#FDA3AB"/>
<path d="M139.95 95C137.189 95 134.95 97.2386 134.95 100C134.95 102.761 137.189 105 139.95 105H140.05C142.811 105 145.05 102.761 145.05 100C145.05 97.2386 142.811 95 140.05 95H139.95Z" fill="#FDA3AB"/>
<path d="M159.95 95C157.189 95 154.95 97.2386 154.95 100C154.95 102.761 157.189 105 159.95 105H160.05C162.811 105 165.05 102.761 165.05 100C165.05 97.2386 162.811 95 160.05 95H159.95Z" fill="#FDA3AB"/>
<path d="M179.95 95C177.189 95 174.95 97.2386 174.95 100C174.95 102.761 177.189 105 179.95 105H180.05C182.811 105 185.05 102.761 185.05 100C185.05 97.2386 182.811 95 180.05 95H179.95Z" fill="#FDA3AB"/>
<path d="M105 119.95C105 117.189 102.761 114.95 100 114.95C97.2386 114.95 95 117.189 95 119.95V120.05C95 122.811 97.2386 125.05 100 125.05C102.761 125.05 105 122.811 105 120.05V119.95Z" fill="#FDA3AB"/>
<path d="M105 139.95C105 137.189 102.761 134.95 100 134.95C97.2386 134.95 95 137.189 95 139.95V140.05C95 142.811 97.2386 145.05 100 145.05C102.761 145.05 105 142.811 105 140.05V139.95Z" fill="#FDA3AB"/>
<path d="M105 159.95C105 157.189 102.761 154.95 100 154.95C97.2386 154.95 95 157.189 95 159.95V160.05C95 162.811 97.2386 165.05 100 165.05C102.761 165.05 105 162.811 105 160.05V159.95Z" fill="#FDA3AB"/>
<path d="M105 179.95C105 177.189 102.761 174.95 100 174.95C97.2386 174.95 95 177.189 95 179.95V180.05C95 182.811 97.2386 185.05 100 185.05C102.761 185.05 105 182.811 105 180.05V179.95Z" fill="#FDA3AB"/>
</svg>
